<svg width="152" height="36" viewBox="0 0 152 36" fill="none" xmlns="http://www.w3.org/2000/svg">
<rect x="1" y="0.889893" width="150" height="34" rx="4" fill="#0C0C0C"/>
<path d="M11 34.8899H5C2.79086 34.8899 1 33.1078 1 30.8986C1 25.101 1 14.0427 1 4.88906C1 2.67992 2.79086 0.889893 5 0.889893H11" stroke="#F9F9F9"/>
<path d="M141 34.8899H147C149.209 34.8899 151 33.1078 151 30.8986C151 25.101 151 14.0427 151 4.88906C151 2.67992 149.209 0.889893 147 0.889893H141" stroke="#F9F9F9"/>
<path d="M46.95 25.0699C45.966 25.0699 45.126 24.8899 44.43 24.5299C43.734 24.1699 43.116 23.6479 42.576 22.9639L43.728 21.8119C44.124 22.3639 44.58 22.7839 45.096 23.0719C45.612 23.3479 46.248 23.4859 47.004 23.4859C47.748 23.4859 48.342 23.3239 48.786 22.9999C49.242 22.6759 49.47 22.2319 49.47 21.6679C49.47 21.1999 49.362 20.8219 49.146 20.5339C48.93 20.2459 48.636 20.0119 48.264 19.8319C47.904 19.6399 47.508 19.4719 47.076 19.3279C46.644 19.1719 46.212 19.0099 45.78 18.8419C45.348 18.6619 44.952 18.4459 44.592 18.1939C44.232 17.9299 43.938 17.5879 43.71 17.1679C43.494 16.7479 43.386 16.2199 43.386 15.5839C43.386 14.8759 43.554 14.2759 43.89 13.7839C44.238 13.2799 44.706 12.8959 45.294 12.6319C45.894 12.3559 46.566 12.2179 47.31 12.2179C48.126 12.2179 48.858 12.3799 49.506 12.7039C50.154 13.0159 50.682 13.4299 51.09 13.9459L49.938 15.0979C49.566 14.6659 49.164 14.3419 48.732 14.1259C48.312 13.9099 47.826 13.8019 47.274 13.8019C46.602 13.8019 46.068 13.9519 45.672 14.2519C45.276 14.5399 45.078 14.9479 45.078 15.4759C45.078 15.8959 45.186 16.2379 45.402 16.5019C45.63 16.7539 45.924 16.9699 46.284 17.1499C46.644 17.3299 47.04 17.4979 47.472 17.6539C47.916 17.7979 48.354 17.9599 48.786 18.1399C49.218 18.3199 49.614 18.5479 49.974 18.8239C50.334 19.0999 50.622 19.4599 50.838 19.9039C51.066 20.3359 51.18 20.8819 51.18 21.5419C51.18 22.6459 50.796 23.5099 50.028 24.1339C49.272 24.7579 48.246 25.0699 46.95 25.0699ZM59.0031 25.0699C58.1031 25.0699 57.2691 24.9079 56.5011 24.5839C55.7331 24.2479 55.0611 23.7859 54.4851 23.1979C53.9211 22.6099 53.4831 21.9259 53.1711 21.1459C52.8591 20.3659 52.7031 19.5319 52.7031 18.6439C52.7031 17.7439 52.8591 16.9039 53.1711 16.1239C53.4831 15.3439 53.9211 14.6659 54.4851 14.0899C55.0611 13.5019 55.7271 13.0459 56.4831 12.7219C57.2511 12.3859 58.0851 12.2179 58.9851 12.2179C59.9691 12.2179 60.8331 12.3859 61.5771 12.7219C62.3211 13.0579 62.9811 13.5139 63.5571 14.0899L62.3871 15.2599C61.9911 14.8159 61.5051 14.4679 60.9291 14.2159C60.3651 13.9639 59.7171 13.8379 58.9851 13.8379C58.3251 13.8379 57.7191 13.9579 57.1671 14.1979C56.6151 14.4259 56.1351 14.7559 55.7271 15.1879C55.3191 15.6199 55.0011 16.1299 54.7731 16.7179C54.5571 17.3059 54.4491 17.9479 54.4491 18.6439C54.4491 19.3399 54.5571 19.9819 54.7731 20.5699C55.0011 21.1579 55.3191 21.6679 55.7271 22.0999C56.1351 22.5319 56.6151 22.8679 57.1671 23.1079C57.7191 23.3359 58.3251 23.4499 58.9851 23.4499C59.7651 23.4499 60.4431 23.3239 61.0191 23.0719C61.5951 22.8079 62.0811 22.4539 62.4771 22.0099L63.6471 23.1619C63.0711 23.7619 62.3931 24.2299 61.6131 24.5659C60.8451 24.9019 59.9751 25.0699 59.0031 25.0699ZM66.6797 19.4539V18.0319H70.0637C70.7957 18.0319 71.3597 17.8459 71.7557 17.4739C72.1517 17.1019 72.3497 16.5979 72.3497 15.9619C72.3497 15.3619 72.1517 14.8639 71.7557 14.4679C71.3717 14.0719 70.8137 13.8739 70.0817 13.8739H66.6797V12.3979H70.1357C70.9277 12.3979 71.6177 12.5539 72.2057 12.8659C72.7937 13.1659 73.2437 13.5799 73.5557 14.1079C73.8797 14.6359 74.0417 15.2419 74.0417 15.9259C74.0417 16.6339 73.8797 17.2519 73.5557 17.7799C73.2437 18.3079 72.7937 18.7219 72.2057 19.0219C71.6177 19.3099 70.9277 19.4539 70.1357 19.4539H66.6797ZM65.5457 24.8899V12.3979H67.2377V24.8899H65.5457ZM72.7457 24.8899L68.2097 19.2919L69.8117 18.7339L74.8877 24.8899H72.7457ZM81.9521 25.0699C81.0641 25.0699 80.2361 24.9079 79.4681 24.5839C78.7001 24.2479 78.0281 23.7859 77.4521 23.1979C76.8761 22.5979 76.4261 21.9079 76.1021 21.1279C75.7901 20.3479 75.6341 19.5139 75.6341 18.6259C75.6341 17.7259 75.7901 16.8919 76.1021 16.1239C76.4261 15.3439 76.8701 14.6599 77.4341 14.0719C78.0101 13.4839 78.6761 13.0279 79.4321 12.7039C80.2001 12.3799 81.0281 12.2179 81.9161 12.2179C82.8041 12.2179 83.6261 12.3799 84.3821 12.7039C85.1501 13.0279 85.8221 13.4839 86.3981 14.0719C86.9741 14.6599 87.4241 15.3439 87.7481 16.1239C88.0721 16.9039 88.2341 17.7439 88.2341 18.6439C88.2341 19.5319 88.0721 20.3659 87.7481 21.1459C87.4241 21.9259 86.9741 22.6099 86.3981 23.1979C85.8341 23.7859 85.1681 24.2479 84.4001 24.5839C83.6441 24.9079 82.8281 25.0699 81.9521 25.0699ZM81.9161 23.4499C82.8161 23.4499 83.6021 23.2459 84.2741 22.8379C84.9581 22.4179 85.4981 21.8479 85.8941 21.1279C86.2901 20.3959 86.4881 19.5619 86.4881 18.6259C86.4881 17.9299 86.3741 17.2939 86.1461 16.7179C85.9181 16.1299 85.6001 15.6199 85.1921 15.1879C84.7841 14.7559 84.3041 14.4259 83.7521 14.1979C83.2001 13.9579 82.5881 13.8379 81.9161 13.8379C81.0281 13.8379 80.2421 14.0419 79.5581 14.4499C78.8861 14.8579 78.3521 15.4219 77.9561 16.1419C77.5721 16.8619 77.3801 17.6899 77.3801 18.6259C77.3801 19.3219 77.4881 19.9699 77.7041 20.5699C77.9321 21.1579 78.2441 21.6679 78.6401 22.0999C79.0481 22.5199 79.5281 22.8499 80.0801 23.0899C80.6441 23.3299 81.2561 23.4499 81.9161 23.4499ZM90.3751 24.8899V12.3979H92.0671V24.8899H90.3751ZM91.5271 24.8899V23.3419H98.2231V24.8899H91.5271ZM100.127 24.8899V12.3979H101.819V24.8899H100.127ZM101.279 24.8899V23.3419H107.975V24.8899H101.279Z" fill="#F9F9F9"/>
</svg>
