<svg width="26" height="26" viewBox="0 0 26 26" fill="none" xmlns="http://www.w3.org/2000/svg">
<path d="M26 13C26 20.1797 20.1797 26 13 26C5.8203 26 0 20.1797 0 13C0 5.8203 5.8203 0 13 0C20.1797 0 26 5.8203 26 13ZM1.40493 13C1.40493 19.4038 6.59622 24.5951 13 24.5951C19.4038 24.5951 24.5951 19.4038 24.5951 13C24.5951 6.59622 19.4038 1.40493 13 1.40493C6.59622 1.40493 1.40493 6.59622 1.40493 13Z" fill="#7090FF"/>
<path d="M17.0977 9.90547C16.7335 9.65937 16.238 9.75573 15.9919 10.1199C14.5553 12.2461 12.6432 15.127 11.6983 16.5536L8.53022 12.886C8.24295 12.5534 7.74053 12.516 7.40785 12.8031C7.07516 13.0904 7.03866 13.5939 7.32597 13.9264L10.7221 17.8595C11.2954 18.523 12.3459 18.4592 12.8321 17.7247C13.6847 16.4368 15.7729 13.288 17.3112 11.0113C17.5573 10.6471 17.4619 10.1516 17.0977 9.90547Z" fill="#7090FF"/>
</svg>
