<svg width="32" height="33" viewBox="0 0 32 33" fill="none" xmlns="http://www.w3.org/2000/svg">
<path d="M26.4765 7.46089C26.4765 8.52402 25.6135 9.38077 24.5566 9.38077C23.4935 9.38077 22.6367 8.51776 22.6367 7.46089C22.6367 6.39777 23.4997 5.54102 24.5566 5.54102C25.6135 5.54102 26.4765 6.40402 26.4765 7.46089Z" fill="#F9F9F9"/>
<path d="M16.0066 21.344C13.0611 21.344 10.6722 18.9551 10.6722 16.0096C10.6722 13.0641 13.0611 10.6752 16.0066 10.6752C18.952 10.6752 21.3409 13.0641 21.3409 16.0096C21.3409 18.9551 18.952 21.344 16.0066 21.344Z" fill="#0C0C0C"/>
<path fill-rule="evenodd" clip-rule="evenodd" d="M16.0094 2.88294C20.2869 2.88294 20.7934 2.9017 22.4757 2.97674C24.0391 3.04553 24.8833 3.30819 25.4462 3.52707C26.1903 3.81473 26.7282 4.16494 27.2847 4.72152C27.8476 5.28435 28.1915 5.81591 28.4792 6.56009C28.6981 7.12292 28.9607 7.97342 29.0295 9.53058C29.1046 11.2191 29.1233 11.7256 29.1233 15.9969C29.1233 20.2744 29.1046 20.7809 29.0295 22.4632C28.9607 24.0266 28.6981 24.8708 28.4792 25.4336C28.1915 26.1778 27.8413 26.7157 27.2847 27.2722C26.7219 27.8351 26.1903 28.179 25.4462 28.4667C24.8833 28.6856 24.0328 28.9482 22.4757 29.017C20.7872 29.092 20.2806 29.1108 16.0094 29.1108C11.7319 29.1108 11.2253 29.092 9.54309 29.017C7.97968 28.9482 7.13543 28.6856 6.5726 28.4667C5.82842 28.179 5.2906 27.8288 4.73402 27.2722C4.17119 26.7094 3.82724 26.1778 3.53957 25.4336C3.3207 24.8708 3.05804 24.0203 2.98925 22.4632C2.91421 20.7747 2.89545 20.2681 2.89545 15.9969C2.89545 11.7194 2.91421 11.2128 2.98925 9.53058C3.05804 7.96717 3.3207 7.12292 3.53957 6.56009C3.82724 5.81591 4.17745 5.27809 4.73402 4.72152C5.29685 4.15869 5.82842 3.81473 6.5726 3.52707C7.13543 3.30819 7.98593 3.04553 9.54309 2.97674C11.2253 2.9017 11.7319 2.88294 16.0094 2.88294ZM24.5566 9.38077C25.6135 9.38077 26.4765 8.52402 26.4765 7.46089C26.4765 6.40402 25.6135 5.54102 24.5566 5.54102C23.4997 5.54102 22.6367 6.39777 22.6367 7.46089C22.6367 8.51776 23.4935 9.38077 24.5566 9.38077ZM7.78299 16.0096C7.78299 11.4694 11.4664 7.78602 16.0066 7.78602C20.5467 7.78602 24.2301 11.4694 24.2301 16.0096C24.2301 20.5497 20.5467 24.2332 16.0066 24.2332C11.4664 24.2332 7.78299 20.5497 7.78299 16.0096Z" fill="#0C0C0C"/>
<path fill-rule="evenodd" clip-rule="evenodd" d="M16.0094 0C11.6631 0 11.119 0.018761 9.41177 0.0938049C7.71077 0.168849 6.54133 0.44401 5.52824 0.837991C4.47137 1.25073 3.5771 1.7948 2.68908 2.68908C1.7948 3.5771 1.25073 4.47137 0.837991 5.52199C0.44401 6.54133 0.168849 7.70451 0.093805 9.40551C0.018761 11.119 0 11.6631 0 16.0094C0 20.3557 0.018761 20.8997 0.093805 22.607C0.168849 24.308 0.44401 25.4774 0.837991 26.4905C1.25073 27.5474 1.7948 28.4417 2.68908 29.3297C3.5771 30.2177 4.47137 30.768 5.52199 31.1745C6.54133 31.5685 7.70451 31.8437 9.40551 31.9187C11.1128 31.9937 11.6568 32.0125 16.0031 32.0125C20.3494 32.0125 20.8935 31.9937 22.6007 31.9187C24.3017 31.8437 25.4712 31.5685 26.4843 31.1745C27.5349 30.768 28.4292 30.2177 29.3172 29.3297C30.2052 28.4417 30.7555 27.5474 31.162 26.4968C31.556 25.4774 31.8312 24.3142 31.9062 22.6132C31.9812 20.906 32 20.3619 32 16.0156C32 11.6693 31.9812 11.1253 31.9062 9.41802C31.8312 7.71702 31.556 6.54759 31.162 5.53449C30.768 4.47137 30.224 3.5771 29.3297 2.68908C28.4417 1.80106 27.5474 1.25073 26.4968 0.844245C25.4774 0.450264 24.3142 0.175103 22.6133 0.100059C20.8997 0.018761 20.3557 0 16.0094 0ZM22.4757 2.97674C20.7934 2.9017 20.2869 2.88294 16.0094 2.88294C11.7319 2.88294 11.2253 2.9017 9.54309 2.97674C7.98593 3.04553 7.13543 3.30819 6.5726 3.52707C5.82842 3.81473 5.29685 4.15869 4.73402 4.72152C4.17745 5.27809 3.82724 5.81591 3.53957 6.56009C3.3207 7.12292 3.05804 7.96717 2.98925 9.53058C2.91421 11.2128 2.89545 11.7194 2.89545 15.9969C2.89545 20.2681 2.91421 20.7747 2.98925 22.4632C3.05804 24.0203 3.3207 24.8708 3.53957 25.4336C3.82724 26.1778 4.17119 26.7094 4.73402 27.2722C5.2906 27.8288 5.82842 28.179 6.5726 28.4667C7.13543 28.6856 7.97968 28.9482 9.54309 29.017C11.2253 29.092 11.7319 29.1108 16.0094 29.1108C20.2806 29.1108 20.7872 29.092 22.4757 29.017C24.0328 28.9482 24.8833 28.6856 25.4462 28.4667C26.1903 28.179 26.7219 27.8351 27.2847 27.2722C27.8413 26.7157 28.1915 26.1778 28.4792 25.4336C28.6981 24.8708 28.9607 24.0266 29.0295 22.4632C29.1046 20.7809 29.1233 20.2744 29.1233 15.9969C29.1233 11.7256 29.1046 11.2191 29.0295 9.53058C28.9607 7.97342 28.6981 7.12292 28.4792 6.56009C28.1915 5.81591 27.8476 5.28435 27.2847 4.72152C26.7282 4.16494 26.1903 3.81473 25.4462 3.52707C24.8833 3.30819 24.0391 3.04553 22.4757 2.97674Z" fill="#0C0C0C"/>
</svg>
