<svg width="120" height="29" viewBox="0 0 120 29" fill="none" xmlns="http://www.w3.org/2000/svg">
<path d="M48.5117 23.0839V4.54797H51.0217V23.0839H48.5117Z" fill="#0C0C0C"/>
<path d="M56.7843 23.0839V20.7869H61.9378C63.3085 20.7869 64.5101 20.4931 65.5426 19.9055C66.5751 19.3001 67.3761 18.4721 67.9458 17.4216C68.5332 16.3711 68.8269 15.1603 68.8269 13.7892C68.8269 12.436 68.5332 11.2341 67.9458 10.1835C67.3583 9.13298 66.5484 8.31391 65.5159 7.72632C64.4834 7.13872 63.2907 6.84493 61.9378 6.84493H56.811V4.54797H61.9912C63.3441 4.54797 64.5902 4.77945 65.7295 5.2424C66.8866 5.70535 67.8835 6.35527 68.7201 7.19214C69.5746 8.02902 70.2332 9.00834 70.6961 10.1301C71.1767 11.2519 71.417 12.4805 71.417 13.8159C71.417 15.1336 71.1767 16.3622 70.6961 17.5017C70.2332 18.6235 69.5835 19.6028 68.7468 20.4397C67.9102 21.2766 66.9133 21.9265 65.7562 22.3894C64.6169 22.8524 63.3797 23.0839 62.0446 23.0839H56.7843ZM55.1288 23.0839V4.54797H57.6388V23.0839H55.1288Z" fill="#0C0C0C"/>
<path d="M74.227 23.0839V10.3972H76.6302V23.0839H74.227ZM75.4286 7.85986C74.9835 7.85986 74.6186 7.71741 74.3338 7.43252C74.049 7.12982 73.9066 6.7559 73.9066 6.31075C73.9066 5.88341 74.049 5.52729 74.3338 5.2424C74.6186 4.9397 74.9835 4.78835 75.4286 4.78835C75.8736 4.78835 76.2385 4.9397 76.5234 5.2424C76.8082 5.52729 76.9506 5.88341 76.9506 6.31075C76.9506 6.7559 76.8082 7.12982 76.5234 7.43252C76.2385 7.71741 75.8736 7.85986 75.4286 7.85986Z" fill="#0C0C0C"/>
<path d="M85.165 28.666C83.8655 28.666 82.7084 28.4256 81.6937 27.9449C80.6969 27.4641 79.8958 26.7875 79.2906 25.915L80.8393 24.3392C81.3555 24.998 81.9697 25.4966 82.6817 25.8349C83.3938 26.191 84.2393 26.369 85.2184 26.369C86.5179 26.369 87.5415 26.0218 88.2891 25.3274C89.0546 24.6508 89.4373 23.7338 89.4373 22.5764V19.4248L89.8645 16.5669L89.4373 13.7358V10.3972H91.8405V22.5764C91.8405 23.7872 91.5557 24.8466 90.986 25.7547C90.4342 26.6628 89.6509 27.3751 88.6362 27.8914C87.6394 28.4078 86.4823 28.666 85.165 28.666ZM85.165 22.8702C84.0079 22.8702 82.9665 22.5942 82.0409 22.0422C81.133 21.4902 80.412 20.7335 79.878 19.772C79.344 18.7927 79.0769 17.6976 79.0769 16.4868C79.0769 15.276 79.344 14.1987 79.878 13.255C80.412 12.2935 81.133 11.5368 82.0409 10.9848C82.9665 10.415 84.0079 10.1301 85.165 10.1301C86.1619 10.1301 87.043 10.326 87.8085 10.7177C88.5739 11.1094 89.1792 11.6614 89.6242 12.3736C90.0871 13.0681 90.3363 13.8871 90.3719 14.8309V18.1962C90.3185 19.1221 90.0604 19.9411 89.5975 20.6534C89.1525 21.3478 88.5472 21.8909 87.7818 22.2826C87.0163 22.6743 86.1441 22.8702 85.165 22.8702ZM85.6456 20.5999C86.4289 20.5999 87.1142 20.4308 87.7017 20.0925C88.3069 19.7542 88.7698 19.2823 89.0902 18.6769C89.4106 18.0537 89.5708 17.3326 89.5708 16.5135C89.5708 15.6944 89.4017 14.9822 89.0635 14.3768C88.7431 13.7536 88.2891 13.2728 87.7017 12.9345C87.1142 12.5784 86.42 12.4004 85.6189 12.4004C84.8179 12.4004 84.1147 12.5784 83.5095 12.9345C82.9042 13.2728 82.4236 13.7536 82.0676 14.3768C81.7293 14.9822 81.5602 15.6855 81.5602 16.4868C81.5602 17.2881 81.7293 18.0003 82.0676 18.6235C82.4236 19.2467 82.9042 19.7364 83.5095 20.0925C84.1325 20.4308 84.8446 20.5999 85.6456 20.5999Z" fill="#0C0C0C"/>
<path d="M100.975 23.351C99.7114 23.351 98.5721 23.0661 97.5574 22.4963C96.5427 21.9087 95.7417 21.1163 95.1542 20.1192C94.5668 19.1221 94.2731 17.9914 94.2731 16.7272C94.2731 15.4808 94.5579 14.359 95.1275 13.3619C95.715 12.3647 96.4982 11.5813 97.4773 11.0115C98.4742 10.4239 99.5868 10.1301 100.815 10.1301C101.99 10.1301 103.022 10.3972 103.912 10.9314C104.82 11.4655 105.524 12.2045 106.022 13.1482C106.538 14.0919 106.796 15.1603 106.796 16.3533C106.796 16.5313 106.787 16.7272 106.77 16.9408C106.752 17.1367 106.716 17.3682 106.663 17.6353H95.9553V15.6321H105.381L104.5 16.4067C104.5 15.552 104.349 14.8309 104.046 14.2433C103.743 13.6379 103.316 13.1749 102.764 12.8544C102.212 12.5161 101.545 12.3469 100.762 12.3469C99.9428 12.3469 99.2218 12.525 98.5988 12.8811C97.9758 13.2372 97.4951 13.7358 97.1569 14.3768C96.8187 15.0178 96.6496 15.7746 96.6496 16.647C96.6496 17.5373 96.8276 18.3208 97.1836 18.9974C97.5396 19.6562 98.047 20.1726 98.7056 20.5465C99.3643 20.9026 100.121 21.0807 100.975 21.0807C101.687 21.0807 102.337 20.9561 102.925 20.7068C103.53 20.4575 104.046 20.0836 104.473 19.585L106.022 21.1608C105.417 21.8731 104.669 22.4161 103.779 22.7901C102.907 23.164 101.972 23.351 100.975 23.351Z" fill="#0C0C0C"/>
<path d="M117.09 23.0839L113.138 17.5284L112.684 17.1011L107.69 10.3972H110.601L114.206 15.3383L114.66 15.7122L120 23.0839H117.09ZM107.45 23.0839L112.684 16.0327L114.045 17.7955L110.281 23.0839H107.45ZM114.847 17.0744L113.458 15.365L116.956 10.3972H119.76L114.847 17.0744Z" fill="#0C0C0C"/>
<path d="M27.2881 27.2881H9.0957V18.1914H18.1914V9.0957H27.2881V27.2881ZM18.1914 9.0957H9.0957V18.1914H0V0H18.1914V9.0957ZM36.3838 9.0957H27.2881V0H36.3838V9.0957Z" fill="url(#paint0_linear_3481_213)"/>
<defs>
<linearGradient id="paint0_linear_3481_213" x1="36" y1="-39.5" x2="-10.0006" y2="30.9996" gradientUnits="userSpaceOnUse">
<stop stop-color="#0C0C0C"/>
<stop offset="1" stop-color="#7090FF"/>
</linearGradient>
</defs>
</svg>
