<svg width="1500" height="359" viewBox="0 0 1500 359" fill="none" xmlns="http://www.w3.org/2000/svg">
<path d="M606.396 288.548V56.8497H637.77V288.548H606.396Z" fill="#F9F9F9"/>
<path d="M709.803 288.548V259.836H774.222C791.355 259.836 806.375 256.164 819.281 248.819C832.187 241.252 842.201 230.902 849.321 217.77C856.664 204.638 860.336 189.503 860.336 172.365C860.336 155.45 856.664 140.426 849.321 127.294C841.978 114.162 831.853 103.924 818.948 96.579C806.042 89.2341 791.133 85.5617 774.222 85.5617H710.137V56.8497H774.889C791.801 56.8497 807.377 59.7432 821.618 65.5301C836.081 71.317 848.542 79.4409 859.001 89.9018C869.681 100.363 877.914 112.604 883.7 126.626C889.708 140.649 892.712 156.006 892.712 172.699C892.712 189.169 889.708 204.527 883.7 218.772C877.914 232.794 869.793 245.035 859.334 255.496C848.876 265.957 836.415 274.081 821.952 279.868C807.71 285.655 792.246 288.548 775.557 288.548H709.803ZM689.109 288.548V56.8497H720.484V288.548H689.109Z" fill="#F9F9F9"/>
<path d="M927.836 288.548V129.965H957.876V288.548H927.836ZM942.856 98.2483C937.293 98.2483 932.732 96.4677 929.171 92.9066C925.611 89.1228 923.831 84.4488 923.831 78.8845C923.831 73.5427 925.611 69.0913 929.171 65.5301C932.732 61.7463 937.293 59.8545 942.856 59.8545C948.419 59.8545 952.981 61.7463 956.541 65.5301C960.101 69.0913 961.881 73.5427 961.881 78.8845C961.881 84.4488 960.101 89.1228 956.541 92.9066C952.981 96.4677 948.419 98.2483 942.856 98.2483Z" fill="#F9F9F9"/>
<path d="M1064.56 358.325C1048.32 358.325 1033.85 355.32 1021.17 349.311C1008.71 343.301 998.697 334.844 991.131 323.938L1010.49 304.24C1016.94 312.475 1024.62 318.707 1033.52 322.936C1042.42 327.387 1052.99 329.613 1065.23 329.613C1081.47 329.613 1094.27 325.273 1103.61 316.593C1113.18 308.135 1117.97 296.672 1117.97 282.205V242.81L1123.31 207.087L1117.97 171.697V129.965H1148.01V282.205C1148.01 297.34 1144.44 310.583 1137.32 321.934C1130.43 333.286 1120.64 342.189 1107.95 348.643C1095.49 355.098 1081.03 358.325 1064.56 358.325ZM1064.56 285.878C1050.1 285.878 1037.08 282.428 1025.51 275.528C1014.16 268.628 1005.15 259.169 998.474 247.15C991.799 234.908 988.461 221.22 988.461 206.085C988.461 190.95 991.799 177.484 998.474 165.688C1005.15 153.669 1014.16 144.21 1025.51 137.31C1037.08 130.188 1050.1 126.626 1064.56 126.626C1077.02 126.626 1088.04 129.075 1097.61 133.971C1107.17 138.868 1114.74 145.768 1120.3 154.671C1126.09 163.351 1129.2 173.589 1129.65 185.386V227.452C1128.98 239.026 1125.75 249.264 1119.97 258.167C1114.41 266.848 1106.84 273.636 1097.27 278.533C1087.7 283.429 1076.8 285.878 1064.56 285.878ZM1070.57 257.499C1080.36 257.499 1088.93 255.385 1096.27 251.156C1103.84 246.927 1109.62 241.029 1113.63 233.462C1117.63 225.671 1119.63 216.657 1119.63 206.419C1119.63 196.181 1117.52 187.278 1113.29 179.71C1109.29 171.92 1103.61 165.911 1096.27 161.682C1088.93 157.23 1080.25 155.004 1070.24 155.004C1060.22 155.004 1051.43 157.23 1043.87 161.682C1036.3 165.911 1030.29 171.92 1025.84 179.71C1021.62 187.278 1019.5 196.069 1019.5 206.085C1019.5 216.101 1021.62 225.004 1025.84 232.794C1030.29 240.584 1036.3 246.705 1043.87 251.156C1051.66 255.385 1060.56 257.499 1070.57 257.499Z" fill="#F9F9F9"/>
<path d="M1262.19 291.887C1246.39 291.887 1232.15 288.326 1219.47 281.203C1206.78 273.859 1196.77 263.954 1189.43 251.49C1182.08 239.026 1178.41 224.892 1178.41 209.09C1178.41 193.51 1181.97 179.488 1189.09 167.023C1196.44 154.559 1206.23 144.766 1218.47 137.644C1230.93 130.299 1244.83 126.626 1260.19 126.626C1274.87 126.626 1287.78 129.965 1298.91 136.642C1310.25 143.319 1319.04 152.556 1325.27 164.353C1331.73 176.149 1334.95 189.503 1334.95 204.416C1334.95 206.641 1334.84 209.09 1334.62 211.761C1334.4 214.209 1333.95 217.102 1333.28 220.441H1199.44V195.402H1317.26L1306.25 205.083C1306.25 194.4 1304.36 185.386 1300.57 178.041C1296.79 170.473 1291.45 164.686 1284.55 160.68C1277.66 156.451 1269.31 154.337 1259.52 154.337C1249.28 154.337 1240.27 156.563 1232.48 161.014C1224.7 165.465 1218.69 171.697 1214.46 179.71C1210.23 187.723 1208.12 197.182 1208.12 208.088C1208.12 219.217 1210.34 229.01 1214.79 237.468C1219.24 245.703 1225.59 252.158 1233.82 256.832C1242.05 261.283 1251.51 263.509 1262.19 263.509C1271.09 263.509 1279.21 261.951 1286.56 258.835C1294.12 255.719 1300.57 251.045 1305.91 244.813L1325.27 264.511C1317.71 273.413 1308.36 280.202 1297.24 284.876C1286.33 289.55 1274.65 291.887 1262.19 291.887Z" fill="#F9F9F9"/>
<path d="M1463.62 288.548L1414.22 219.106L1408.55 213.764L1346.13 129.965H1382.51L1427.57 191.729L1433.24 196.403L1500 288.548H1463.62ZM1343.13 288.548L1408.55 200.409L1425.57 222.444L1378.51 288.548H1343.13ZM1435.58 213.43L1418.22 192.063L1461.95 129.965H1497L1435.58 213.43Z" fill="#F9F9F9"/>
<path fill-rule="evenodd" clip-rule="evenodd" d="M0 0H113.699V113.699V227.399H0V113.699V0ZM227.399 227.399H113.7V341.098H227.399V227.399ZM113.7 0H227.399V113.699H113.7V0ZM341.098 113.699L227.399 113.699V227.399H341.099V113.699L454.797 113.699V0H341.098V113.699ZM341.099 227.399V341.098H227.399V227.399H341.099Z" fill="url(#paint0_linear_131_23)"/>
<defs>
<linearGradient id="paint0_linear_131_23" x1="227.399" y1="-180.024" x2="-0.000130481" y2="170.549" gradientUnits="userSpaceOnUse">
<stop stop-color="#F9F9F9"/>
<stop offset="1" stop-color="#7090FF"/>
</linearGradient>
</defs>
</svg>
