<svg width="880" height="415" viewBox="0 0 880 415" fill="none" xmlns="http://www.w3.org/2000/svg">
<mask id="path-1-inside-1_43_663" fill="white">
<path fill-rule="evenodd" clip-rule="evenodd" d="M0 20.7826C0 9.7369 8.95431 0.782593 20 0.782593H420C431.046 0.782593 440 9.7369 440 20.7826V52.7826C440 63.8283 448.954 72.7826 460 72.7826H860C871.046 72.7826 880 81.7369 880 92.7826V297.783C880 308.828 871.046 317.783 860 317.783H530C518.954 317.783 510 326.737 510 337.783V394.783C510 405.828 501.046 414.783 490 414.783H130C118.954 414.783 110 405.828 110 394.783V317.783V257.783C110 246.737 101.046 237.783 90 237.783H20C8.95431 237.783 0 228.828 0 217.783V20.7826Z"/>
</mask>
<path fill-rule="evenodd" clip-rule="evenodd" d="M0 20.7826C0 9.7369 8.95431 0.782593 20 0.782593H420C431.046 0.782593 440 9.7369 440 20.7826V52.7826C440 63.8283 448.954 72.7826 460 72.7826H860C871.046 72.7826 880 81.7369 880 92.7826V297.783C880 308.828 871.046 317.783 860 317.783H530C518.954 317.783 510 326.737 510 337.783V394.783C510 405.828 501.046 414.783 490 414.783H130C118.954 414.783 110 405.828 110 394.783V317.783V257.783C110 246.737 101.046 237.783 90 237.783H20C8.95431 237.783 0 228.828 0 217.783V20.7826Z" fill="#0C0C0C"/>
<path d="M420 -1.21741H20V2.78259H420V-1.21741ZM442 52.7826V20.7826H438V52.7826H442ZM860 70.7826H460V74.7826H860V70.7826ZM882 297.783V92.7826H878V297.783H882ZM530 319.783H860V315.783H530V319.783ZM508 337.783V394.783H512V337.783H508ZM490 412.783H130V416.783H490V412.783ZM112 394.783V317.783H108V394.783H112ZM108 257.783V317.783H112V257.783H108ZM20 239.783H90V235.783H20V239.783ZM-2 20.7826V217.783H2V20.7826H-2ZM20 235.783C10.0589 235.783 2 227.724 2 217.783H-2C-2 229.933 7.84974 239.783 20 239.783V235.783ZM112 257.783C112 245.632 102.15 235.783 90 235.783V239.783C99.9411 239.783 108 247.841 108 257.783H112ZM130 412.783C120.059 412.783 112 404.724 112 394.783H108C108 406.933 117.85 416.783 130 416.783V412.783ZM508 394.783C508 404.724 499.941 412.783 490 412.783V416.783C502.15 416.783 512 406.933 512 394.783H508ZM530 315.783C517.85 315.783 508 325.632 508 337.783H512C512 327.841 520.059 319.783 530 319.783V315.783ZM878 297.783C878 307.724 869.941 315.783 860 315.783V319.783C872.15 319.783 882 309.933 882 297.783H878ZM860 74.7826C869.941 74.7826 878 82.8415 878 92.7826H882C882 80.6323 872.15 70.7826 860 70.7826V74.7826ZM438 52.7826C438 64.9329 447.85 74.7826 460 74.7826V70.7826C450.059 70.7826 442 62.7237 442 52.7826H438ZM20 -1.21741C7.84974 -1.21741 -2 8.63233 -2 20.7826H2C2 10.8415 10.0589 2.78259 20 2.78259V-1.21741ZM420 2.78259C429.941 2.78259 438 10.8415 438 20.7826H442C442 8.63233 432.15 -1.21741 420 -1.21741V2.78259Z" fill="url(#paint0_linear_43_663)" mask="url(#path-1-inside-1_43_663)"/>
<defs>
<linearGradient id="paint0_linear_43_663" x1="440" y1="-243.162" x2="440" y2="129.93" gradientUnits="userSpaceOnUse">
<stop stop-color="#A9A9A9"/>
<stop offset="1" stop-color="#A9A9A9" stop-opacity="0"/>
</linearGradient>
</defs>
</svg>
