<svg width="1280" height="21" viewBox="0 0 1280 21" fill="none" xmlns="http://www.w3.org/2000/svg">
<line x1="0.5" y1="0.889893" x2="0.5" y2="20.8899" stroke="#A9A9A9"/>
<line x1="213.5" y1="0.889893" x2="213.5" y2="20.8899" stroke="#A9A9A9"/>
<line x1="426.5" y1="0.889893" x2="426.5" y2="20.8899" stroke="#A9A9A9"/>
<line x1="639.5" y1="0.889893" x2="639.5" y2="20.8899" stroke="#A9A9A9"/>
<line x1="852.5" y1="0.889893" x2="852.5" y2="20.8899" stroke="#A9A9A9"/>
<line x1="1065.5" y1="0.889893" x2="1065.5" y2="20.8899" stroke="#A9A9A9"/>
<line x1="71.5" y1="0.889893" x2="71.5" y2="20.8899" stroke="#A9A9A9"/>
<line x1="284.5" y1="0.889893" x2="284.5" y2="20.8899" stroke="#A9A9A9"/>
<line x1="497.5" y1="0.889893" x2="497.5" y2="20.8899" stroke="#A9A9A9"/>
<line x1="710.5" y1="0.889893" x2="710.5" y2="20.8899" stroke="#A9A9A9"/>
<line x1="923.5" y1="0.889893" x2="923.5" y2="20.8899" stroke="#A9A9A9"/>
<line x1="1136.5" y1="0.889893" x2="1136.5" y2="20.8899" stroke="#A9A9A9"/>
<line x1="142.5" y1="0.889893" x2="142.5" y2="20.8899" stroke="#A9A9A9"/>
<line x1="355.5" y1="0.889893" x2="355.5" y2="20.8899" stroke="#A9A9A9"/>
<line x1="568.5" y1="0.889893" x2="568.5" y2="20.8899" stroke="#A9A9A9"/>
<line x1="781.5" y1="0.889893" x2="781.5" y2="20.8899" stroke="#A9A9A9"/>
<line x1="994.5" y1="0.889893" x2="994.5" y2="20.8899" stroke="#A9A9A9"/>
<line x1="1207.5" y1="0.889893" x2="1207.5" y2="20.8899" stroke="#A9A9A9"/>
<line x1="1279.5" y1="0.889893" x2="1279.5" y2="20.8899" stroke="#A9A9A9"/>
</svg>
