<svg width="32" height="32" viewBox="0 0 32 32" fill="none" xmlns="http://www.w3.org/2000/svg">
<path fill-rule="evenodd" clip-rule="evenodd" d="M8.83798 26.924C11.0833 28.2507 13.2268 29.0453 16.0616 29.0467C23.3603 29.0467 29.3059 23.1347 29.3099 15.8667C29.3126 8.584 23.3951 2.68 16.0723 2.67733C8.76831 2.67733 2.82676 8.58933 2.82408 15.856C2.82274 18.8227 3.69622 21.044 5.16319 23.368L3.82483 28.232L8.83798 26.924ZM23.3295 19.176C23.7287 19.3747 23.994 19.4733 24.0931 19.6387C24.1936 19.804 24.1936 20.5973 23.8613 21.524C23.5291 22.4493 21.9389 23.2947 21.1739 23.408C20.488 23.5093 19.6199 23.552 18.666 23.2507C18.0886 23.068 17.3464 22.824 16.3965 22.416C12.4029 20.7 9.79586 16.6973 9.59625 16.4333L9.59153 16.427C9.37642 16.1408 7.9712 14.2705 7.9712 12.3347C7.9712 10.384 9.00008 9.42667 9.36448 9.02933C9.72888 8.632 10.1603 8.53333 10.4255 8.53333L11.1891 8.54667C11.433 8.55867 11.7612 8.45467 12.0854 9.22667C12.4163 10.02 13.2121 11.9707 13.3126 12.168C13.413 12.3667 13.4787 12.5987 13.3461 12.8627C13.2121 13.128 13.1464 13.2933 12.9441 13.5227C12.7445 13.7547 12.5262 14.04 12.3466 14.2173C12.1484 14.4147 11.9407 14.6293 12.1725 15.0253C12.4043 15.4227 13.2041 16.72 14.387 17.7707C15.9076 19.1213 17.191 19.5387 17.5889 19.7373C17.9868 19.936 18.2199 19.9027 18.4516 19.6387C18.6834 19.3747 19.447 18.4813 19.7123 18.0853C19.9789 17.688 20.2442 17.7547 20.6086 17.8867C20.9743 18.0187 22.9316 18.9773 23.3295 19.176Z" fill="#0C0C0C"/>
<path fill-rule="evenodd" clip-rule="evenodd" d="M2.26007 23.7827L0 32L8.44679 29.7947C10.7738 31.0587 13.401 31.724 16.067 31.7253C24.8487 31.7253 31.996 24.612 32 15.8693C32.0013 11.632 30.3455 7.648 27.3379 4.65067C24.3289 1.65333 20.3286 0.00133333 16.067 0C7.28527 0 0.137989 7.11333 0.13397 15.8547C0.13263 18.6507 0.865444 21.3773 2.26007 23.7827ZM16.0616 29.0467C13.2268 29.0453 11.0833 28.2507 8.83798 26.924L3.82483 28.232L5.16319 23.368C3.69622 21.044 2.82274 18.8227 2.82408 15.856C2.82676 8.58933 8.76831 2.67733 16.0723 2.67733C23.3951 2.68 29.3126 8.584 29.3099 15.8667C29.3059 23.1347 23.3603 29.0467 16.0616 29.0467Z" fill="#0C0C0C"/>
</svg>
